Coordinates
version=1
nRows=24
nColumns=24
inDegrees=yes

Units are S.I. units (second, meters, Newtons, ...)
Angles are in degrees.

endheader
time	pelvis_tilt	pelvis_list	pelvis_rotation	pelvis_tx	pelvis_ty	pelvis_tz	hip_flexion_r	hip_adduction_r	hip_rotation_r	knee_angle_r	ankle_angle_r	subtalar_angle_r	mtp_angle_r	hip_flexion_l	hip_adduction_l	hip_rotation_l	knee_angle_l	ankle_angle_l	subtalar_angle_l	mtp_angle_l	lumbar_extension	lumbar_bending	lumbar_rotation
      1.77500000	      4.30802092	     -9.64160918	      6.02472366	      0.57012450	      0.91368752	      0.00091046	      1.33122574	     15.08720850	     -6.56567758	    -13.88206333	     18.32626038	     -2.78251046	     30.41245500	     18.66260791	     -7.63562727	      5.94784044	    -68.15363485	     15.87771093	     -3.44893322	     30.83640827	    -12.82438473	     10.02230611	     -5.03137276
      1.78000000	      4.44678969	     -9.40699739	      6.09224923	      0.57816682	      0.91474511	      0.00078261	      0.15124004	     15.00390739	     -6.03912755	    -13.03023717	     18.21250358	     -3.33010148	     30.27933001	     19.11302665	     -7.21756086	      5.88792086	    -67.13130955	     16.13316598	     -3.83310052	     30.63657089	    -12.96085145	      9.78961619	     -5.05005457
      1.78500000	      4.63466761	     -9.19825757	      6.10910707	      0.58623426	      0.91578772	      0.00074499	     -1.09666283	     14.95032193	     -5.43609319	    -12.15748181	     18.05411829	     -3.86612253	     30.14071246	     19.46065951	     -6.88035726	      5.74773266	    -66.00815353	     16.37420268	     -4.17753644	     30.39382958	    -13.15985298	      9.57958804	     -5.01536524
      1.79000000	      4.82942173	     -8.98887127	      6.10480118	      0.59429734	      0.91674037	      0.00074884	     -2.34128131	     14.88766694	     -4.84646406	    -11.30803455	     17.87892303	     -4.40579995	     29.99985077	     19.75867171	     -6.56767652	      5.57002644	    -64.79059769	     16.60649175	     -4.49216307	     30.09016270	    -13.37203627	      9.36274429	     -4.97978555
      1.79500000	      4.98914665	     -8.77024050	      6.10560610	      0.60234426	      0.91756158	      0.00071216	     -3.53044116	     14.79861810	     -4.29652184	    -10.48912461	     17.70721693	     -4.95038245	     29.86990211	     20.05972253	     -6.23225228	      5.41771837	    -63.48198500	     16.77472405	     -4.82312736	     29.80408459	    -13.54414953	      9.13713473	     -4.96167078
      1.80000000	      5.12985034	     -8.53725606	      6.10027391	      0.61034354	      0.91826481	      0.00067168	     -4.67454586	     14.68083577	     -3.79700325	     -9.71297229	     17.55463673	     -5.47701536	     29.75257982	     20.34336910	     -5.88089724	      5.27550995	    -62.08035674	     16.88862912	     -5.12209221	     29.56962770	    -13.70345234	      8.89296307	     -4.93445404
      1.80500000	      5.29876587	     -8.32963117	      6.04975801	      0.61836305	      0.91891600	      0.00070258	     -5.84854346	     14.58108082	     -3.27758567	     -8.94558259	     17.36336556	     -5.97070090	     29.62973379	     20.55166935	     -5.60055996	      5.06668181	    -60.59247074	     17.00325965	     -5.37718337	     29.32030588	    -13.89850910	      8.67120062	     -4.87116703
      1.81000000	      5.46769889	     -8.15659993	      5.96529258	      0.62636089	      0.91946196	      0.00078354	     -7.00441736	     14.50263287	     -2.78719712	     -8.20904538	     17.17059421	     -6.38248340	     29.50816492	     20.72835421	     -5.38489704	      4.82286112	    -59.03202223	     17.12211488	     -5.57236487	     29.01560549	    -14.09861675	      8.48134472	     -4.78410730
      1.81500000	      5.59651425	     -7.96489752	      5.88173535	      0.63430388	      0.91987210	      0.00082829	     -8.08439937	     14.38721817	     -2.36951654	     -7.52901364	     17.01869431	     -6.75878778	     29.39764446	     20.91166274	     -5.13366524	      4.61151072	    -57.38352912	     17.16315424	     -5.75049124	     28.75133926	    -14.26125803	      8.27129029	     -4.68622080
      1.82000000	      5.75672552	     -7.80788851	      5.75344489	      0.64226588	      0.92023579	      0.00099217	     -9.18867563	     14.29930103	     -1.98046055	     -6.87169183	     16.86540512	     -7.01132148	     29.19658958	     21.01998636	     -4.97533274	      4.32670826	    -55.66355962	     17.32494261	     -5.68979683	     27.92889128	    -14.46209454	      8.08560088	     -4.56573329
      1.82500000	      5.84665926	     -7.65503920	      5.61866764	      0.65016298	      0.92041210	      0.00109569	    -10.17956793	     14.19295858	     -1.64983141	     -6.27598967	     16.72202177	     -7.24597133	     29.10795903	     21.17640330	     -4.78914087	      4.07972822	    -53.86464916	     17.26367676	     -5.93513353	     27.76332095	    -14.58997005	      7.90584202	     -4.42396980
      1.83000000	      5.97324534	     -7.52812604	      5.44229471	      0.65806209	      0.92056682	      0.00128288	    -11.19806833	     14.10169925	     -1.34488803	     -5.70701561	     16.58503232	     -7.36949011	     29.01996110	     21.24836230	     -4.67914820	      3.76528874	    -51.98542955	     17.25125346	     -5.98227620	     27.59728665	    -14.76373611	      7.74660392	     -4.24512843
      1.83500000	      6.08945493	     -7.42169796	      5.25069100	      0.66592821	      0.92061732	      0.00150824	    -12.17825312	     14.01979260	     -1.09540205	     -5.18382319	     16.46861199	     -7.40149667	     28.93698298	     21.29889722	     -4.60010796	      3.44653504	    -50.03753959	     17.20738181	     -6.01727869	     27.40957913	    -14.93172387	      7.60173359	     -4.04935785
      1.84000000	      6.17890099	     -7.32614224	      5.03648165	      0.67379716	      0.92055182	      0.00173793	    -13.10307317	     13.93132248	     -0.91215934	     -4.71254894	     16.38770308	     -7.35184854	     28.86942354	     21.34222860	     -4.54659908	      3.08706139	    -48.02718600	     17.12841864	     -5.99945102	     27.23134831	    -15.07073552	      7.46732995	     -3.83297517
      1.84500000	      6.28800534	     -7.25769914	      4.80299740	      0.68163595	      0.92043245	      0.00201555	    -14.02833861	     13.86011725	     -0.74487858	     -4.27870990	     16.31780025	     -7.19610879	     28.80911164	     21.32589266	     -4.53294512	      2.72814905	    -45.94758728	     17.04826887	     -5.94982765	     27.04564327	    -15.23686141	      7.35371988	     -3.58444465
      1.85000000	      6.41724574	     -7.21085147	      4.56900933	      0.68949047	      0.92027351	      0.00226726	    -14.96154325	     13.79933010	     -0.65574924	     -3.86791067	     16.23551030	     -6.93425282	     28.73767940	     21.25064464	     -4.55217319	      2.34382065	    -43.80682761	     16.97133012	     -5.85884837	     26.81040395	    -15.42356012	      7.26899203	     -3.33752782
      1.85500000	      6.46918463	     -7.16396984	      4.27653727	      0.69732320	      0.91994409	      0.00260156	    -15.76653981	     13.71259403	     -0.55240483	     -3.55572105	     16.26009829	     -6.63743059	     28.71667510	     21.21390334	     -4.58461444	      1.90805290	    -41.60513121	     16.83149280	     -5.70007368	     26.65181045	    -15.53287078	      7.16519245	     -3.04640158
      1.86000000	      6.58747250	     -7.14115426	      4.00229127	      0.70518765	      0.91962789	      0.00288236	    -16.65308120	     13.64605013	     -0.51516619	     -3.21658042	     16.24938230	     -6.23833011	     28.70229970	     21.06782482	     -4.64325371	      1.47206848	    -39.35052844	     16.71071212	     -5.49193804	     26.49318279	    -15.71025881	      7.09757878	     -2.71147374
      1.86500000	      6.69059937	     -7.13394400	      3.70354875	      0.71305929	      0.91923727	      0.00318858	    -17.48743529	     13.57707273	     -0.50634438	     -2.95376899	     16.26313401	     -5.76597537	     28.71136210	     20.89673247	     -4.72521128	      1.00471257	    -37.04739065	     16.57327961	     -5.21687249	     26.34744362	    -15.87259643	      7.03972168	     -2.37932993
      1.87000000	      6.72802408	     -7.14177587	      3.36586234	      0.72095504	      0.91869697	      0.00354704	    -18.22034187	     13.50052543	     -0.47808748	     -2.76148046	     16.32401603	     -5.27911504	     28.75354922	     20.76086604	     -4.83174777	      0.48124627	    -34.71674870	     16.41301178	     -4.86621699	     26.25452319	    -15.96527984	      6.98568364	     -2.06776973
      1.87500000	      6.86282013	     -7.15832580	      3.04704696	      0.72888404	      0.91821979	      0.00383157	    -19.06827370	     13.42578742	     -0.50858486	     -2.54725529	     16.38030996	     -4.69083875	     28.82365952	     20.47731983	     -4.93789037	     -0.01941534	    -32.34574282	     16.26725988	     -4.42435019	     26.17397688	    -16.15877167	      6.95111244	     -1.63951752
      1.88000000	      7.00721735	     -7.18395763	      2.73121525	      0.73685193	      0.91770316	      0.00409523	    -19.90022368	     13.34772284	     -0.58473014	     -2.38769888	     16.40678588	     -4.05631368	     28.93418215	     20.14795669	     -5.04947078	     -0.55332689	    -29.95039687	     16.09929791	     -3.92752601	     26.10058635	    -16.36288340	      6.92764886	     -1.28956465
      1.88500000	      7.11402075	     -7.22281843	      2.37687495	      0.74485636	      0.91708665	      0.00438579	    -20.67132765	     13.25651763	     -0.62114518	     -2.28036278	     16.49050191	     -3.40056107	     29.09681659	     19.82437871	     -5.17307192	     -1.11393121	    -27.55477935	     15.92869076	     -3.34271698	     26.07780056	    -16.52476866	      6.90839954	     -0.88614712
      1.89000000	      7.22245167	     -7.27420579	      2.01064500	      0.75290840	      0.91642032	      0.00465968	    -21.42539478	     13.15853831	     -0.66031428	     -2.21710187	     16.58865958	     -2.70834867	     29.30693543	     19.46771963	     -5.30151825	     -1.68594269	    -25.16305040	     15.74612794	     -2.69272794	     26.08559161	    -16.68459712	      6.90150929	     -0.45314573
